# xmcd
#
# Track frame offsets:
#	150
#	24728
#	49360
#
# Disc length: 984 seconds
# Revision: 0
# Processed by: cddbd v1.5.2PL0 Copyright (c) Steve Scherf et al.
# Submitted via: dBpowerAMP V12.0
#
DISCID=2303d603
DTITLE=Maharajas - Giddeh Vich
DYEAR=2016
DGENRE=World
TTITLE0=Giddeh Vich (feat. Aman Sandhu and Hmc)
TTITLE1=Giddeh Vich (feat. Aman Sandhu)
TTITLE2=Giddeh Vich Instrumental
EXTD=
EXTT0=
EXTT1=
EXTT2=
PLAYORDER=
